<svg width="64" height="64" viewBox="0 0 64 64" fill="none" xmlns="http://www.w3.org/2000/svg">
<g id="image 19 (traced)">
<g id="Gray">
<path id="Vector" d="M55.2625 1.2375C55.125 1.375 54.975 1.7 54.9375 1.9625C54.5625 4.1125 53.8875 5.7625 53.075 6.4625C52.425 7.025 51.05 7.7 50.1625 7.875C49.325 8.05 49 8.35 49 8.95C49 9.6875 49.1625 9.8375 50.35 10.2C51.725 10.6125 52.7 11.1125 53.2125 11.65C53.925 12.4 54.6 14.1 54.9375 16.0375C55.05 16.7 55.3875 17 56 17C56.6125 17 56.9625 16.6875 57.0625 16.0375C57.3875 14.05 58.1375 12.2125 58.925 11.525C59.5375 10.9875 60.3375 10.6 61.65 10.2C62.8375 9.8375 63 9.6875 63 8.95C63 8.35 62.675 8.05 61.8375 7.875C60.95 7.7 59.575 7.025 58.925 6.4625C58.1125 5.7625 57.4375 4.1125 57.0625 1.9625C56.95 1.3 56.6125 1 56 1C55.675 1 55.4125 1.0875 55.2625 1.2375ZM56.275 6.525C56.55 7.1 57.525 8.1625 58.2 8.6L58.7625 8.975L58.35 9.2625C57.625 9.75 56.75 10.675 56.4125 11.275C56.2375 11.6125 56.05 11.875 56 11.875C55.9625 11.875 55.825 11.675 55.7125 11.425C55.4375 10.8625 54.3375 9.6875 53.7125 9.2875L53.2375 8.9875L53.725 8.65C53.9875 8.4625 54.325 8.225 54.45 8.125C54.8 7.8625 55.7125 6.675 55.8125 6.375C55.925 6.025 56.05 6.0625 56.275 6.525Z" fill="#404040"/>
<path id="Vector_2" d="M14.35 16.15C14.2375 16.2375 12.325 18.8375 10.075 21.925C6.4625 26.9125 6 27.6 6 28.0125C6 28.45 6.825 29.4875 18.075 43.0875C24.725 51.1125 30.2375 57.7625 30.35 57.85C30.4625 57.925 30.75 58 31 58C31.25 58 31.5375 57.925 31.65 57.85C31.7625 57.7625 37.275 51.1125 43.925 43.0875C55.175 29.4875 56 28.45 56 28.0125C56 27.6 55.5375 26.9125 51.925 21.925C49.675 18.8375 47.7625 16.2375 47.65 16.15C47.5 16.0375 43.975 16 31 16C18.025 16 14.5 16.0375 14.35 16.15ZM28.1125 18.5875C27.8 18.925 26.1125 20.75 24.375 22.675C21.3 26.0625 21.2125 26.15 21.05 25.85C20.9625 25.6875 19.9625 23.85 18.8375 21.775L16.775 18L22.725 18L28.675 18L28.1125 18.5875ZM43.1625 21.775C42.0375 23.85 41.0375 25.6875 40.95 25.85C40.7875 26.15 40.7 26.0625 37.625 22.675C35.8875 20.75 34.2 18.925 33.8875 18.5875L33.325 18L39.275 18L45.225 18L43.1625 21.775ZM34.8375 22.8125L38.5875 26.9375L34.7875 26.975C32.7125 26.9875 29.3 26.9875 27.2125 26.975L23.4125 26.9375L27.175 22.7875C29.25 20.5125 30.975 18.65 31.0125 18.6625C31.05 18.675 32.775 20.5375 34.8375 22.8125ZM17.0875 23.0625L19.225 27L14.1625 27C10.1625 27 9.125 26.9625 9.2 26.8375C9.4625 26.3875 14.8 19.125 14.8625 19.125C14.9 19.125 15.9 20.9 17.0875 23.0625ZM49.9625 22.9C51.475 24.9875 52.75 26.7625 52.8 26.8375C52.875 26.9625 51.8375 27 47.8375 27L42.775 27L44.9125 23.0625C46.1 20.9 47.1 19.125 47.1375 19.125C47.1875 19.125 48.45 20.825 49.9625 22.9ZM20.325 29.275C20.375 29.4375 22.1125 34.5125 24.2 40.55C26.2875 46.6 27.975 51.5625 27.9625 51.575C27.9375 51.6 14.0375 34.8625 10.15 30.1125L9.2375 29L14.7375 29L20.2375 29L20.325 29.275ZM39.475 29.15C39.4375 29.2375 37.5375 34.75 35.25 41.4C32.95 48.0625 31.05 53.5 31 53.5C30.9625 53.5 29.05 48.0625 26.7625 41.4C24.4625 34.75 22.5625 29.2375 22.5375 29.15C22.4875 29.0375 24.225 29 31 29C37.7625 29 39.5125 29.0375 39.475 29.15ZM51.85 30.1125C48.15 34.625 34.0625 51.6 34.0375 51.575C34.025 51.5625 35.7625 46.475 37.9 40.275L41.7875 29L47.275 29L52.7625 29L51.85 30.1125Z" fill="#404040"/>
<path id="Vector_3" d="M8.2625 45.2375C8.125 45.375 7.9625 45.8 7.875 46.2125C7.4375 48.4625 6.8375 50.0125 6.05 50.875C5.25 51.7625 3.4875 52.6375 1.9625 52.925C1.3125 53.05 1 53.3875 1 53.975C1 54.2375 1.075 54.55 1.1625 54.675C1.25 54.7875 1.85 55.0375 2.5 55.2375C4.85 55.925 5.975 56.675 6.725 58.1C7.1125 58.825 7.6125 60.425 7.875 61.7875C8.0625 62.7 8.3375 63 9 63C9.6625 63 9.9375 62.7 10.125 61.7875C10.3875 60.4125 10.8875 58.825 11.275 58.1C12.0375 56.6625 13.15 55.925 15.65 55.1875C16.825 54.8375 17 54.6875 17 54C17 53.3125 16.825 53.1625 15.65 52.8125C13.15 52.075 12.0375 51.3375 11.275 49.9C10.8875 49.175 10.3875 47.5875 10.125 46.2125C9.9375 45.3 9.6625 45 9 45C8.675 45 8.4125 45.0875 8.2625 45.2375ZM9.3 50.75C9.8 51.8875 11.1375 53.3 12.1625 53.7625C12.35 53.85 12.5 53.95 12.5 54C12.5 54.05 12.35 54.15 12.1625 54.2375C11.1375 54.7 9.8 56.1125 9.3 57.25C9.175 57.525 9.05 57.75 9.0125 57.75C8.975 57.75 8.75 57.375 8.5125 56.925C8.0125 55.9625 6.925 54.8125 6.0875 54.375C5.7625 54.2 5.5 54.0375 5.5 54C5.5 53.9625 5.825 53.7375 6.2125 53.5125C7.1375 52.95 8.025 52 8.5375 51.0375C8.75 50.6 8.975 50.25 9.0125 50.25C9.05 50.25 9.175 50.475 9.3 50.75Z" fill="#404040"/>
<path id="Vector_4" d="M55.2625 46.2375C55.125 46.375 54.975 46.7 54.9375 46.9625C54.75 48.05 54.3375 49.375 53.9875 49.975C53.5125 50.8 52.625 51.4125 51.2875 51.825C50.1875 52.1625 50 52.325 50 53C50 53.675 50.1875 53.8375 51.2875 54.175C52.825 54.65 53.5625 55.2125 54.15 56.375C54.4375 56.9625 54.7 57.7375 54.8375 58.425C55.0875 59.7375 55.2875 60 56 60C56.6125 60 56.95 59.7 57.0625 59.0375C57.2625 57.9 57.675 56.5875 58.05 55.975C58.55 55.1375 59.3375 54.6 60.7 54.175C61.8125 53.8375 62 53.675 62 53C62 52.325 61.8125 52.1625 60.7125 51.825C59.375 51.4125 58.4875 50.8 58.0125 49.975C57.6625 49.375 57.25 48.05 57.0625 46.9625C56.95 46.3 56.6125 46 56 46C55.675 46 55.4125 46.0875 55.2625 46.2375ZM56.2125 51.1625C56.4125 51.5875 57 52.25 57.5125 52.625L57.9875 52.9625L57.4125 53.4375C57.1125 53.7 56.65 54.1875 56.4125 54.525L55.975 55.125L55.6375 54.6C55.3125 54.0875 54.6375 53.425 54.1625 53.1375C53.95 53 53.95 52.9875 54.175 52.85C54.65 52.575 55.4625 51.75 55.7 51.3125C55.975 50.8 56.0375 50.775 56.2125 51.1625Z" fill="#404040"/>
</g>
</g>
</svg>
