<svg width="64" height="64" viewBox="0 0 64 64" fill="none" xmlns="http://www.w3.org/2000/svg">
<g id="ring 1 (traced)" clip-path="url(#clip0_145_879)">
<g id="Black">
<path id="Vector" d="M22.35 0.149998C22.2375 0.237499 20.9875 1.9375 19.575 3.925C17.2875 7.1375 17 7.5875 17 8.025C17 8.4875 17.1625 8.675 20.225 11.975C22 13.875 23.775 15.7875 24.175 16.2125C24.5625 16.6375 24.8375 17 24.7875 17.0375C24.7375 17.0625 24.4625 17.1625 24.1875 17.25C23.275 17.5375 21.45 18.35 20.35 18.9625C14.575 22.15 10.3 27.7125 8.675 34.1375C7.7375 37.8375 7.7625 42.3 8.7375 46.0625C10.2375 51.9 14.125 57.2 19.2375 60.375C23.2 62.825 27.3 64 32 64C38.55 64 44.3875 61.5875 48.9875 56.9875C52.675 53.3 54.8875 48.925 55.7625 43.625C56.05 41.8375 56.075 38.5125 55.8125 36.6375C54.625 28.3125 49.1125 21.125 41.4375 17.8875C40.825 17.625 40.0875 17.3375 39.8125 17.25C39.5375 17.1625 39.2625 17.0625 39.2125 17.0375C39.1125 16.975 39.0625 17.0375 43.775 11.975C46.8375 8.675 47 8.475 47 8.025C47 7.6 46.7125 7.15 44.55 4.1125C43.2125 2.225 41.9625 0.537499 41.7875 0.337498L41.45 1.65336e-07L32 1.18643e-07C24.625 8.22021e-08 22.5 0.0374985 22.35 0.149998ZM29.875 2.0625C29.875 2.1625 27.2375 5.8125 27.1375 5.85C27.05 5.875 25.1 2.6 24.9 2.1C24.875 2.05 25.9875 2 27.3625 2C28.75 2 29.875 2.025 29.875 2.0625ZM39.1 2.1C38.9 2.6 36.95 5.875 36.8625 5.85C36.7625 5.8125 34.125 2.1625 34.125 2.0625C34.125 2.025 35.25 2 36.6375 2C38.0125 2 39.125 2.05 39.1 2.1ZM33.4875 4.9375C34.25 6.0125 34.875 6.9125 34.875 6.9375C34.875 6.975 33.5875 7 32 7C30.425 7 29.125 6.975 29.125 6.9375C29.125 6.8125 31.9125 3 32 3C32.05 3 32.725 3.875 33.4875 4.9375ZM24.0125 4.9625C24.5875 5.975 25.0875 6.8375 25.1 6.9C25.125 6.95 24.0125 7 22.625 7C21.2375 7 20.125 6.95 20.15 6.9C20.25 6.65 22.8125 3.125 22.8875 3.125C22.9375 3.125 23.45 3.95 24.0125 4.9625ZM42.55 5.0375C43.275 6.05 43.875 6.9125 43.875 6.9375C43.875 6.975 42.75 7 41.3625 7C39.9875 7 38.875 6.95 38.9 6.9C39.1 6.4 41.05 3.125 41.1375 3.15C41.1875 3.175 41.825 4.025 42.55 5.0375ZM27.375 12.5625C28.025 14.5125 28.525 16.1375 28.5 16.1625C28.4625 16.2 28.175 16.25 27.8625 16.3L27.3 16.3875L24.1125 12.975C22.3625 11.1125 20.8375 9.45 20.7125 9.2875L20.4875 9L23.3375 9L26.1875 9L27.375 12.5625ZM35.475 9.15C35.4375 9.2375 34.9125 10.8125 34.3 12.65L33.1875 16L32 16L30.8125 16L29.7 12.65C29.0875 10.8125 28.5625 9.2375 28.525 9.15C28.4875 9.0375 29.225 9 32 9C34.775 9 35.5125 9.0375 35.475 9.15ZM43.2875 9.2875C43.1625 9.45 41.6375 11.1125 39.8875 12.975L36.7 16.3875L36.1375 16.3C35.825 16.25 35.5375 16.2 35.5 16.1625C35.475 16.1375 35.975 14.5125 36.625 12.5625L37.8125 9L40.6625 9L43.5125 9L43.2875 9.2875ZM35.1875 18.3125C42.95 19.4875 49.625 24.825 52.45 32.1375C54.075 36.35 54.3375 41.25 53.1625 45.625C52.1375 49.475 50.0375 53.0125 47.175 55.75C42.9375 59.8 37.7875 61.875 32 61.875C26.2125 61.875 21.0625 59.8 16.825 55.75C12.5125 51.6375 10.125 46.025 10.125 40.0125C10.125 37.1875 10.5875 34.6375 11.55 32.1375C14.35 24.875 21.0125 19.5125 28.7 18.325C30.225 18.0875 33.6375 18.075 35.1875 18.3125Z" fill="#404040"/>
<path id="Vector_2" d="M29 21.1874C27.1 21.5124 25.05 22.1499 23.625 22.8749C17.875 25.7749 14.0875 30.9999 13.1375 37.3374C12.9625 38.4999 12.9625 41.4999 13.1375 42.6624C14.0875 48.9999 17.875 54.2249 23.625 57.1249C25.1125 57.8749 27.4 58.5749 29.3375 58.8624C30.5 59.0374 33.5 59.0374 34.6625 58.8624C42.4625 57.6999 48.6375 52.1124 50.4875 44.5624C50.875 42.9624 51 41.8749 51 39.9999C51 36.2624 50.125 33.1374 48.225 30.0249C45.2875 25.2124 40.3625 21.9874 34.6625 21.1374C33.475 20.9499 30.175 20.9874 29 21.1874ZM35.5 23.4374C42.0625 24.8999 47.1625 30.0499 48.5875 36.6249C48.9125 38.1249 48.9125 41.8749 48.5875 43.3749C47.15 50.0124 42.0125 55.1499 35.375 56.5874C33.875 56.9124 30.125 56.9124 28.625 56.5874C21.9875 55.1499 16.85 50.0124 15.4125 43.3749C15.0875 41.8749 15.0875 38.1249 15.4125 36.6249C16.5 31.5999 19.7625 27.3124 24.2375 25.0124C26.125 24.0499 27.275 23.6749 29.875 23.1999C30.6125 23.0624 34.5875 23.2374 35.5 23.4374Z" fill="#404040"/>
<path id="Vector_3" d="M11.25 1.25004C10.9625 1.53754 10.9125 2.33754 11.1625 2.65004C11.2375 2.76254 12.0375 3.33754 12.9375 3.92504C14.7125 5.10004 15.2375 5.26254 15.75 4.75004C16.0375 4.46254 16.0875 3.66254 15.85 3.35004C15.7625 3.23754 14.9625 2.66254 14.0625 2.07504C12.2875 0.900041 11.7625 0.737541 11.25 1.25004Z" fill="#404040"/>
<path id="Vector_4" d="M49.9375 2.07504C49.0375 2.66254 48.2375 3.23754 48.1625 3.35004C47.9125 3.66254 47.9625 4.46254 48.25 4.75004C48.7625 5.26254 49.2875 5.10004 51.0625 3.92504C51.9625 3.33754 52.7625 2.76254 52.85 2.65004C53.0875 2.33754 53.0375 1.53754 52.75 1.25004C52.2375 0.737541 51.7125 0.900041 49.9375 2.07504Z" fill="#404040"/>
<path id="Vector_5" d="M10.25 7.25C10.0875 7.4125 10 7.6625 10 8C10 8.3375 10.0875 8.5875 10.25 8.75C10.475 8.975 10.6625 9 12.5 9C14.3375 9 14.525 8.975 14.75 8.75C14.9125 8.5875 15 8.3375 15 8C15 7.6625 14.9125 7.4125 14.75 7.25C14.525 7.025 14.3375 7 12.5 7C10.6625 7 10.475 7.025 10.25 7.25Z" fill="#404040"/>
<path id="Vector_6" d="M49.25 7.25C49.0875 7.4125 49 7.6625 49 8C49 8.3375 49.0875 8.5875 49.25 8.75C49.475 8.975 49.6625 9 51.5 9C53.3375 9 53.525 8.975 53.75 8.75C53.9125 8.5875 54 8.3375 54 8C54 7.6625 53.9125 7.4125 53.75 7.25C53.525 7.025 53.3375 7 51.5 7C49.6625 7 49.475 7.025 49.25 7.25Z" fill="#404040"/>
<path id="Vector_7" d="M12.9375 12.075C12.0375 12.6625 11.2375 13.2375 11.1625 13.35C10.9125 13.6625 10.9625 14.4625 11.25 14.75C11.7625 15.2625 12.2875 15.1 14.0625 13.925C14.9625 13.3375 15.7625 12.7625 15.85 12.65C16.0875 12.3375 16.0375 11.5375 15.75 11.25C15.2375 10.7375 14.7125 10.9 12.9375 12.075Z" fill="#404040"/>
<path id="Vector_8" d="M48.25 11.25C47.9625 11.5375 47.9125 12.3375 48.1625 12.65C48.2375 12.7625 49.0375 13.3375 49.9375 13.925C51.7125 15.1 52.2375 15.2625 52.75 14.75C53.0375 14.4625 53.0875 13.6625 52.85 13.35C52.7625 13.2375 51.9625 12.6625 51.0625 12.075C49.2875 10.9 48.7625 10.7375 48.25 11.25Z" fill="#404040"/>
</g>
</g>
<defs>
<clipPath id="clip0_145_879">
<rect width="64" height="64" fill="white"/>
</clipPath>
</defs>
</svg>
