<svg width="64" height="64" viewBox="0 0 64 64" fill="none" xmlns="http://www.w3.org/2000/svg">
<g id="ring 1 (traced)">
<path id="Union" fill-rule="evenodd" clip-rule="evenodd" d="M41 20.5C41 21.3284 41.6716 22 42.5 22C43.3284 22 44 21.3284 44 20.5C44 19.6716 43.3284 19 42.5 19C41.6716 19 41 19.6716 41 20.5ZM42.5 17C40.7707 17 39.3343 18.2541 39.0508 19.9025C36.9802 18.693 34.571 18 32 18C29.429 18 27.0199 18.693 24.9492 19.9025C24.6657 18.2541 23.2293 17 21.5 17C19.567 17 18 18.567 18 20.5C18 22.1193 19.0997 23.4818 20.5931 23.8813C19.9107 24.8384 19.3457 25.885 18.9193 27L17 27L6 27C3.23858 27 1 29.2386 1 32C1 34.7614 3.23858 37 6 37L17 37L18.9193 37C19.3457 38.115 19.9107 39.1616 20.5931 40.1187C19.0997 40.5182 18 41.8807 18 43.5C18 45.433 19.567 47 21.5 47C23.2293 47 24.6657 45.7459 24.9492 44.0975C27.0199 45.307 29.429 46 32 46C34.571 46 36.9802 45.307 39.0508 44.0975C39.3343 45.7459 40.7707 47 42.5 47C44.433 47 46 45.433 46 43.5C46 41.8807 44.9003 40.5182 43.4069 40.1187C44.0893 39.1616 44.6543 38.115 45.0807 37L47 37L58 37C60.7614 37 63 34.7614 63 32C63 29.2386 60.7614 27 58 27L47 27L45.0807 27C44.6543 25.885 44.0893 24.8384 43.4069 23.8814C44.9003 23.4818 46 22.1193 46 20.5C46 18.567 44.433 17 42.5 17ZM20 32C20 38.6274 25.3726 44 32 44C38.6274 44 44 38.6274 44 32C44 25.3726 38.6274 20 32 20C25.3726 20 20 25.3726 20 32ZM17 29L18.3222 29C18.1112 29.9665 18 30.9703 18 32C18 33.0297 18.1112 34.0335 18.3222 35L17 35L6 35C4.34315 35 3 33.6569 3 32C3 30.3431 4.34315 29 6 29L17 29ZM47 35L45.6778 35C45.8888 34.0335 46 33.0297 46 32C46 30.9703 45.8888 29.9665 45.6778 29L47 29L58 29C59.6569 29 61 30.3431 61 32C61 33.6569 59.6569 35 58 35L47 35ZM32 38C28.6863 38 26 35.3137 26 32C26 28.6863 28.6863 26 32 26C35.3137 26 38 28.6863 38 32C38 35.3137 35.3137 38 32 38ZM24 32C24 27.5817 27.5817 24 32 24C36.4183 24 40 27.5817 40 32C40 36.4183 36.4183 40 32 40C27.5817 40 24 36.4183 24 32ZM20 43.5C20 44.3284 20.6716 45 21.5 45C22.3284 45 23 44.3284 23 43.5C23 42.6716 22.3284 42 21.5 42C20.6716 42 20 42.6716 20 43.5ZM42.5 45C41.6716 45 41 44.3284 41 43.5C41 42.6716 41.6716 42 42.5 42C43.3284 42 44 42.6716 44 43.5C44 44.3284 43.3284 45 42.5 45ZM21.5 22C20.6716 22 20 21.3284 20 20.5C20 19.6716 20.6716 19 21.5 19C22.3284 19 23 19.6716 23 20.5C23 21.3284 22.3284 22 21.5 22Z" fill="#404040"/>
</g>
</svg>
