<svg width="24" height="25" viewBox="0 0 24 25" fill="none" xmlns="http://www.w3.org/2000/svg">
<g id="Facebook - Negative" clip-path="url(#clip0_145_697)">
<path id="Vector" d="M24 12.0884C24 5.46096 18.6274 0.0883789 12 0.0883789C5.37258 0.0883789 0 5.46096 0 12.0884C0 18.0778 4.3882 23.0424 10.125 23.9426V15.5571H7.07812V12.0884H10.125V9.44463C10.125 6.43713 11.9166 4.77588 14.6576 4.77588C15.9701 4.77588 17.3438 5.01025 17.3438 5.01025V7.96338H15.8306C14.34 7.96338 13.875 8.88846 13.875 9.83838V12.0884H17.2031L16.6711 15.5571H13.875V23.9426C19.6118 23.0424 24 18.0778 24 12.0884Z" fill="black"/>
</g>
<defs>
<clipPath id="clip0_145_697">
<rect width="24" height="24" fill="white" transform="translate(0 0.0883789)"/>
</clipPath>
</defs>
</svg>
