<svg width="24" height="25" viewBox="0 0 24 25" fill="none" xmlns="http://www.w3.org/2000/svg">
<g id="Instagram - Negative" clip-path="url(#clip0_145_701)">
<path id="Vector" d="M12 2.24932C15.2063 2.24932 15.5859 2.26338 16.8469 2.31963C18.0188 2.37119 18.6516 2.56807 19.0734 2.73213C19.6313 2.94775 20.0344 3.21025 20.4516 3.62744C20.8734 4.04932 21.1313 4.44775 21.3469 5.00557C21.5109 5.42744 21.7078 6.06494 21.7594 7.23213C21.8156 8.49775 21.8297 8.87744 21.8297 12.079C21.8297 15.2853 21.8156 15.6649 21.7594 16.9259C21.7078 18.0978 21.5109 18.7306 21.3469 19.1524C21.1313 19.7103 20.8687 20.1134 20.4516 20.5306C20.0297 20.9524 19.6313 21.2103 19.0734 21.4259C18.6516 21.5899 18.0141 21.7868 16.8469 21.8384C15.5813 21.8946 15.2016 21.9087 12 21.9087C8.79375 21.9087 8.41406 21.8946 7.15313 21.8384C5.98125 21.7868 5.34844 21.5899 4.92656 21.4259C4.36875 21.2103 3.96563 20.9478 3.54844 20.5306C3.12656 20.1087 2.86875 19.7103 2.65313 19.1524C2.48906 18.7306 2.29219 18.0931 2.24063 16.9259C2.18438 15.6603 2.17031 15.2806 2.17031 12.079C2.17031 8.87275 2.18438 8.49307 2.24063 7.23213C2.29219 6.06025 2.48906 5.42744 2.65313 5.00557C2.86875 4.44775 3.13125 4.04463 3.54844 3.62744C3.97031 3.20557 4.36875 2.94775 4.92656 2.73213C5.34844 2.56807 5.98594 2.37119 7.15313 2.31963C8.41406 2.26338 8.79375 2.24932 12 2.24932ZM12 0.0883789C8.74219 0.0883789 8.33438 0.102441 7.05469 0.158691C5.77969 0.214941 4.90313 0.421191 4.14375 0.716504C3.35156 1.02588 2.68125 1.43369 2.01563 2.104C1.34531 2.76963 0.9375 3.43994 0.628125 4.22744C0.332812 4.9915 0.126563 5.86338 0.0703125 7.13838C0.0140625 8.42275 0 8.83057 0 12.0884C0 15.3462 0.0140625 15.754 0.0703125 17.0337C0.126563 18.3087 0.332812 19.1853 0.628125 19.9446C0.9375 20.7368 1.34531 21.4071 2.01563 22.0728C2.68125 22.7384 3.35156 23.1509 4.13906 23.4556C4.90313 23.7509 5.775 23.9571 7.05 24.0134C8.32969 24.0696 8.7375 24.0837 11.9953 24.0837C15.2531 24.0837 15.6609 24.0696 16.9406 24.0134C18.2156 23.9571 19.0922 23.7509 19.8516 23.4556C20.6391 23.1509 21.3094 22.7384 21.975 22.0728C22.6406 21.4071 23.0531 20.7368 23.3578 19.9493C23.6531 19.1853 23.8594 18.3134 23.9156 17.0384C23.9719 15.7587 23.9859 15.3509 23.9859 12.0931C23.9859 8.83525 23.9719 8.42744 23.9156 7.14775C23.8594 5.87275 23.6531 4.99619 23.3578 4.23682C23.0625 3.43994 22.6547 2.76963 21.9844 2.104C21.3188 1.43838 20.6484 1.02588 19.8609 0.721191C19.0969 0.425879 18.225 0.219629 16.95 0.163379C15.6656 0.102441 15.2578 0.0883789 12 0.0883789Z" fill="black"/>
<path id="Vector_2" d="M12 5.92432C8.59688 5.92432 5.83594 8.68525 5.83594 12.0884C5.83594 15.4915 8.59688 18.2524 12 18.2524C15.4031 18.2524 18.1641 15.4915 18.1641 12.0884C18.1641 8.68525 15.4031 5.92432 12 5.92432ZM12 16.0868C9.79219 16.0868 8.00156 14.2962 8.00156 12.0884C8.00156 9.88057 9.79219 8.08994 12 8.08994C14.2078 8.08994 15.9984 9.88057 15.9984 12.0884C15.9984 14.2962 14.2078 16.0868 12 16.0868Z" fill="black"/>
<path id="Vector_3" d="M19.8469 5.68076C19.8469 6.47764 19.2 7.11983 18.4078 7.11983C17.6109 7.11983 16.9688 6.47295 16.9688 5.68076C16.9688 4.88389 17.6156 4.2417 18.4078 4.2417C19.2 4.2417 19.8469 4.88858 19.8469 5.68076Z" fill="black"/>
</g>
<defs>
<clipPath id="clip0_145_701">
<rect width="24" height="24" fill="white" transform="translate(0 0.0883789)"/>
</clipPath>
</defs>
</svg>
