<svg width="24" height="25" viewBox="0 0 24 25" fill="none" xmlns="http://www.w3.org/2000/svg">
<g id="LinkedIn - Negative" clip-path="url(#clip0_145_705)">
<path id="Vector" d="M22.2234 0.0883789H1.77187C0.792187 0.0883789 0 0.861817 0 1.81807V22.354C0 23.3103 0.792187 24.0884 1.77187 24.0884H22.2234C23.2031 24.0884 24 23.3103 24 22.3587V1.81807C24 0.861817 23.2031 0.0883789 22.2234 0.0883789ZM7.12031 20.5399H3.55781V9.08369H7.12031V20.5399ZM5.33906 7.52275C4.19531 7.52275 3.27188 6.59932 3.27188 5.46025C3.27188 4.32119 4.19531 3.39775 5.33906 3.39775C6.47813 3.39775 7.40156 4.32119 7.40156 5.46025C7.40156 6.59463 6.47813 7.52275 5.33906 7.52275ZM20.4516 20.5399H16.8937V14.9712C16.8937 13.6446 16.8703 11.9337 15.0422 11.9337C13.1906 11.9337 12.9094 13.3821 12.9094 14.8774V20.5399H9.35625V9.08369H12.7687V10.6493H12.8156C13.2891 9.74932 14.4516 8.79775 16.1813 8.79775C19.7859 8.79775 20.4516 11.1696 20.4516 14.254V20.5399Z" fill="black"/>
</g>
<defs>
<clipPath id="clip0_145_705">
<rect width="24" height="24" fill="white" transform="translate(0 0.0883789)"/>
</clipPath>
</defs>
</svg>
