<svg width="24" height="25" viewBox="0 0 24 25" fill="none" xmlns="http://www.w3.org/2000/svg">
<g id="Navigation / Map_Pin">
<path id="Vector" d="M12 11.0884C13.1046 11.0884 14 10.1929 14 9.08838C14 7.98381 13.1046 7.08838 12 7.08838C10.8954 7.08838 10 7.98381 10 9.08838C10 10.1929 10.8954 11.0884 12 11.0884Z" stroke="black" stroke-width="2" strokeLinecap="round" strokeLinejoin="round"/>
<path id="Vector_2" d="M12 21.0884C12 21.0884 19 16.2422 19 10.0115C19 8.17534 18.2625 6.41443 16.9497 5.1161C15.637 3.81777 13.8565 3.08838 12 3.08838C10.1435 3.08838 8.36301 3.81777 7.05025 5.1161C5.7375 6.41443 5 8.17534 5 10.0115C5 16.2422 12 21.0884 12 21.0884Z" stroke="black" stroke-width="2" strokeLinecap="round" strokeLinejoin="round"/>
</g>
</svg>
