<svg width="24" height="25" viewBox="0 0 24 25" fill="none" xmlns="http://www.w3.org/2000/svg">
<g id="Communication / Phone">
<path id="Vector" d="M7.64593 3.08838H4.89474C3.8483 3.08838 3 3.93668 3 4.98312C3 13.8778 10.2106 21.0884 19.1053 21.0884C20.1517 21.0884 21 20.2401 21 19.1936V16.4424C21 15.6246 20.5021 14.8892 19.7428 14.5855L17.1071 13.5312C16.4251 13.2584 15.6483 13.3815 15.084 13.8517L14.4031 14.4191C13.6084 15.0813 12.44 15.0283 11.7085 14.2969L9.79148 12.3799C9.06004 11.6484 9.00704 10.4799 9.66925 9.68528L10.2366 9.00441C10.7069 8.44007 10.83 7.66333 10.5572 6.98126L9.50289 4.3456C9.19916 3.58628 8.46374 3.08838 7.64593 3.08838Z" stroke="black" stroke-width="2" strokeLinecap="round" strokeLinejoin="round"/>
</g>
</svg>
