<svg width="24" height="25" viewBox="0 0 24 25" fill="none" xmlns="http://www.w3.org/2000/svg">
<g id="Twitter - Negative" clip-path="url(#clip0_145_699)">
<path id="Vector" d="M7.55016 21.8386C16.6045 21.8386 21.5583 14.3353 21.5583 7.83048C21.5583 7.61955 21.5536 7.40392 21.5442 7.19298C22.5079 6.49608 23.3395 5.63288 24 4.64392C23.1025 5.04322 22.1496 5.30401 21.1739 5.41736C22.2013 4.80153 22.9705 3.8341 23.3391 2.69439C22.3726 3.26718 21.3156 3.67123 20.2134 3.88923C19.4708 3.10018 18.489 2.57774 17.4197 2.40267C16.3504 2.22761 15.2532 2.40967 14.2977 2.92072C13.3423 3.43177 12.5818 4.24333 12.1338 5.22993C11.6859 6.21654 11.5754 7.32324 11.8195 8.37892C9.86249 8.28071 7.94794 7.77233 6.19998 6.88672C4.45203 6.00112 2.90969 4.75806 1.67297 3.23814C1.0444 4.32187 0.852057 5.60427 1.13503 6.82471C1.418 8.04516 2.15506 9.11207 3.19641 9.80861C2.41463 9.78379 1.64998 9.5733 0.965625 9.19455V9.25548C0.964925 10.3928 1.3581 11.4952 2.07831 12.3754C2.79852 13.2556 3.80132 13.8592 4.91625 14.0836C4.19206 14.2818 3.43198 14.3106 2.69484 14.168C3.00945 15.1461 3.62157 16.0015 4.44577 16.615C5.26997 17.2284 6.26512 17.5692 7.29234 17.5899C5.54842 18.9597 3.39417 19.7027 1.17656 19.6992C0.783287 19.6986 0.390399 19.6745 0 19.627C2.25286 21.0724 4.87353 21.84 7.55016 21.8386Z" fill="black"/>
</g>
<defs>
<clipPath id="clip0_145_699">
<rect width="24" height="24" fill="white" transform="translate(0 0.0883789)"/>
</clipPath>
</defs>
</svg>
