<svg width="24" height="25" viewBox="0 0 24 25" fill="none" xmlns="http://www.w3.org/2000/svg">
<g id="Facebook - Negative" clip-path="url(#clip0_285_2881)">
<path id="Vector" d="M24 12.0889C24 5.46145 18.6274 0.0888672 12 0.0888672C5.37258 0.0888672 0 5.46145 0 12.0889C0 18.0783 4.3882 23.0429 10.125 23.9431V15.5576H7.07812V12.0889H10.125V9.44512C10.125 6.43762 11.9166 4.77637 14.6576 4.77637C15.9701 4.77637 17.3438 5.01074 17.3438 5.01074V7.96387H15.8306C14.34 7.96387 13.875 8.88895 13.875 9.83887V12.0889H17.2031L16.6711 15.5576H13.875V23.9431C19.6118 23.0429 24 18.0783 24 12.0889Z" fill="white"/>
</g>
<defs>
<clipPath id="clip0_285_2881">
<rect width="24" height="24" fill="white" transform="translate(0 0.0888672)"/>
</clipPath>
</defs>
</svg>
