<svg width="24" height="25" viewBox="0 0 24 25" fill="none" xmlns="http://www.w3.org/2000/svg">
<g id="Instagram - Negative" clip-path="url(#clip0_285_2885)">
<path id="Vector" d="M12 2.2498C15.2063 2.2498 15.5859 2.26387 16.8469 2.32012C18.0188 2.37168 18.6516 2.56855 19.0734 2.73262C19.6313 2.94824 20.0344 3.21074 20.4516 3.62793C20.8734 4.0498 21.1313 4.44824 21.3469 5.00605C21.5109 5.42793 21.7078 6.06543 21.7594 7.23262C21.8156 8.49824 21.8297 8.87793 21.8297 12.0795C21.8297 15.2857 21.8156 15.6654 21.7594 16.9264C21.7078 18.0982 21.5109 18.7311 21.3469 19.1529C21.1313 19.7107 20.8687 20.1139 20.4516 20.5311C20.0297 20.9529 19.6313 21.2107 19.0734 21.4264C18.6516 21.5904 18.0141 21.7873 16.8469 21.8389C15.5813 21.8951 15.2016 21.9092 12 21.9092C8.79375 21.9092 8.41406 21.8951 7.15313 21.8389C5.98125 21.7873 5.34844 21.5904 4.92656 21.4264C4.36875 21.2107 3.96563 20.9482 3.54844 20.5311C3.12656 20.1092 2.86875 19.7107 2.65313 19.1529C2.48906 18.7311 2.29219 18.0936 2.24063 16.9264C2.18438 15.6607 2.17031 15.2811 2.17031 12.0795C2.17031 8.87324 2.18438 8.49355 2.24063 7.23262C2.29219 6.06074 2.48906 5.42793 2.65313 5.00605C2.86875 4.44824 3.13125 4.04512 3.54844 3.62793C3.97031 3.20605 4.36875 2.94824 4.92656 2.73262C5.34844 2.56855 5.98594 2.37168 7.15313 2.32012C8.41406 2.26387 8.79375 2.2498 12 2.2498ZM12 0.0888672C8.74219 0.0888672 8.33438 0.10293 7.05469 0.15918C5.77969 0.21543 4.90313 0.42168 4.14375 0.716992C3.35156 1.02637 2.68125 1.43418 2.01563 2.10449C1.34531 2.77012 0.9375 3.44043 0.628125 4.22793C0.332812 4.99199 0.126563 5.86387 0.0703125 7.13887C0.0140625 8.42324 0 8.83105 0 12.0889C0 15.3467 0.0140625 15.7545 0.0703125 17.0342C0.126563 18.3092 0.332812 19.1857 0.628125 19.9451C0.9375 20.7373 1.34531 21.4076 2.01563 22.0732C2.68125 22.7389 3.35156 23.1514 4.13906 23.4561C4.90313 23.7514 5.775 23.9576 7.05 24.0139C8.32969 24.0701 8.7375 24.0842 11.9953 24.0842C15.2531 24.0842 15.6609 24.0701 16.9406 24.0139C18.2156 23.9576 19.0922 23.7514 19.8516 23.4561C20.6391 23.1514 21.3094 22.7389 21.975 22.0732C22.6406 21.4076 23.0531 20.7373 23.3578 19.9498C23.6531 19.1857 23.8594 18.3139 23.9156 17.0389C23.9719 15.7592 23.9859 15.3514 23.9859 12.0936C23.9859 8.83574 23.9719 8.42793 23.9156 7.14824C23.8594 5.87324 23.6531 4.99668 23.3578 4.2373C23.0625 3.44043 22.6547 2.77012 21.9844 2.10449C21.3188 1.43887 20.6484 1.02637 19.8609 0.72168C19.0969 0.426367 18.225 0.220117 16.95 0.163867C15.6656 0.10293 15.2578 0.0888672 12 0.0888672Z" fill="white"/>
<path id="Vector_2" d="M12 5.9248C8.59688 5.9248 5.83594 8.68574 5.83594 12.0889C5.83594 15.492 8.59688 18.2529 12 18.2529C15.4031 18.2529 18.1641 15.492 18.1641 12.0889C18.1641 8.68574 15.4031 5.9248 12 5.9248ZM12 16.0873C9.79219 16.0873 8.00156 14.2967 8.00156 12.0889C8.00156 9.88105 9.79219 8.09043 12 8.09043C14.2078 8.09043 15.9984 9.88105 15.9984 12.0889C15.9984 14.2967 14.2078 16.0873 12 16.0873Z" fill="white"/>
<path id="Vector_3" d="M19.8469 5.68125C19.8469 6.47813 19.2 7.12032 18.4078 7.12032C17.6109 7.12032 16.9688 6.47344 16.9688 5.68125C16.9688 4.88438 17.6156 4.24219 18.4078 4.24219C19.2 4.24219 19.8469 4.88906 19.8469 5.68125Z" fill="white"/>
</g>
<defs>
<clipPath id="clip0_285_2885">
<rect width="24" height="24" fill="white" transform="translate(0 0.0888672)"/>
</clipPath>
</defs>
</svg>
