<svg width="24" height="25" viewBox="0 0 24 25" fill="none" xmlns="http://www.w3.org/2000/svg">
<g id="LinkedIn - Negative" clip-path="url(#clip0_285_2889)">
<path id="Vector" d="M22.2234 0.0888672H1.77187C0.792187 0.0888672 0 0.862305 0 1.81855V22.3545C0 23.3107 0.792187 24.0889 1.77187 24.0889H22.2234C23.2031 24.0889 24 23.3107 24 22.3592V1.81855C24 0.862305 23.2031 0.0888672 22.2234 0.0888672ZM7.12031 20.5404H3.55781V9.08418H7.12031V20.5404ZM5.33906 7.52324C4.19531 7.52324 3.27188 6.5998 3.27188 5.46074C3.27188 4.32168 4.19531 3.39824 5.33906 3.39824C6.47813 3.39824 7.40156 4.32168 7.40156 5.46074C7.40156 6.59512 6.47813 7.52324 5.33906 7.52324ZM20.4516 20.5404H16.8937V14.9717C16.8937 13.6451 16.8703 11.9342 15.0422 11.9342C13.1906 11.9342 12.9094 13.3826 12.9094 14.8779V20.5404H9.35625V9.08418H12.7687V10.6498H12.8156C13.2891 9.74981 14.4516 8.79824 16.1813 8.79824C19.7859 8.79824 20.4516 11.1701 20.4516 14.2545V20.5404Z" fill="white"/>
</g>
<defs>
<clipPath id="clip0_285_2889">
<rect width="24" height="24" fill="white" transform="translate(0 0.0888672)"/>
</clipPath>
</defs>
</svg>
