<svg width="24" height="25" viewBox="0 0 24 25" fill="none" xmlns="http://www.w3.org/2000/svg">
<g id="Navigation / Map_Pin">
<path id="Vector" d="M12 11.0889C13.1046 11.0889 14 10.1934 14 9.08887C14 7.9843 13.1046 7.08887 12 7.08887C10.8954 7.08887 10 7.9843 10 9.08887C10 10.1934 10.8954 11.0889 12 11.0889Z" stroke="white" strokeWidth="2" strokeLinecap="round" strokeLinejoin="round"/>
<path id="Vector_2" d="M12 21.0889C12 21.0889 19 16.2427 19 10.0119C19 8.17583 18.2625 6.41492 16.9497 5.11659C15.637 3.81826 13.8565 3.08887 12 3.08887C10.1435 3.08887 8.36301 3.81826 7.05025 5.11659C5.7375 6.41492 5 8.17583 5 10.0119C5 16.2427 12 21.0889 12 21.0889Z" stroke="white" strokeWidth="2" strokeLinecap="round" strokeLinejoin="round"/>
</g>
</svg>
