<svg width="24" height="25" viewBox="0 0 24 25" fill="none" xmlns="http://www.w3.org/2000/svg">
<g id="Communication / Phone">
<path id="Vector" d="M7.64593 3.08887H4.89474C3.8483 3.08887 3 3.93717 3 4.9836C3 13.8783 10.2106 21.0889 19.1053 21.0889C20.1517 21.0889 21 20.2406 21 19.1941V16.4429C21 15.6251 20.5021 14.8897 19.7428 14.586L17.1071 13.5317C16.4251 13.2589 15.6483 13.3819 15.084 13.8522L14.4031 14.4196C13.6084 15.0818 12.44 15.0288 11.7085 14.2974L9.79148 12.3803C9.06004 11.6489 9.00704 10.4804 9.66925 9.68577L10.2366 9.0049C10.7069 8.44055 10.83 7.66382 10.5572 6.98175L9.50289 4.34609C9.19916 3.58677 8.46374 3.08887 7.64593 3.08887Z" stroke="white" stroke-width="2" strokeLinecap="round" strokeLinejoin="round"/>
</g>
</svg>
